<svg width="12" height="11" viewBox="0 0 12 11" fill="none" xmlns="http://www.w3.org/2000/svg">
<path d="M5.82305 9.2265L8.58971 10.8998C9.09638 11.2065 9.71638 10.7532 9.58305 10.1798L8.84971 7.03317L11.2964 4.91317C11.743 4.5265 11.503 3.79317 10.9164 3.7465L7.69638 3.47317L6.43638 0.499833C6.20971 -0.0401666 5.43638 -0.0401666 5.20971 0.499833L3.94971 3.4665L0.729713 3.73983C0.143046 3.7865 -0.0969535 4.51983 0.349713 4.9065L2.79638 7.0265L2.06305 10.1732C1.92971 10.7465 2.54971 11.1998 3.05638 10.8932L5.82305 9.2265Z" fill="#0953E9"/>
<path d="M5.823 7.88677V1.68677L6.963 4.3801L9.883 4.63344L7.66966 6.55344L8.33633 9.40677L5.823 7.88677Z" fill="white"/>
<path d="M5.823 7.88677V1.68677L4.683 4.3801L1.763 4.63344L3.97633 6.55344L3.30966 9.40677L5.823 7.88677Z" fill="white"/>
</svg>
