<svg width="12" height="11" viewBox="0 0 12 11" fill="none" xmlns="http://www.w3.org/2000/svg">
<path fill-rule="evenodd" clip-rule="evenodd" d="M7.87241 3.45984L11.0991 3.73984C11.6857 3.7865 11.9191 4.51984 11.4724 4.9065L9.02574 7.0265L9.75907 10.1798C9.89241 10.7532 9.27241 11.2065 8.76574 10.8998L5.99907 9.2265L3.23241 10.8932C2.72574 11.1998 2.10574 10.7465 2.23907 10.1732L2.97241 7.0265L0.525739 4.9065C0.0790718 4.51984 0.319072 3.7865 0.905739 3.73984L4.12574 3.4665L5.38574 0.493169C5.61241 -0.0468309 6.38574 -0.0468309 6.61241 0.493169L7.87241 3.45984ZM5.99907 1.77984V7.97984L8.51241 9.49983L7.84574 6.6465L10.0591 4.7265L7.13907 4.47317L5.99907 1.77984Z" fill="#0953E9"/>
</svg>
