<svg width="714" height="243" viewBox="0 0 714 243" fill="none" xmlns="http://www.w3.org/2000/svg">
<path d="M408.441 17.1805L398 11.6245L444 1M408.441 17.1805L410.116 26.2455M408.441 17.1805L444 1M410.116 26.2455L412.972 28M410.116 26.2455L411.495 25.3982L413.447 24.1986M412.972 28L420.36 22.8339M412.972 28L413.447 24.1986M420.36 22.8339L429.422 27.4152L444 1M420.36 22.8339L414.253 19.3249L444 1M444 1L414.056 19.3249L413.447 24.1986" stroke="black"/>
<path d="M665.441 91.1805L655 85.6245L701 75M665.441 91.1805L667.116 100.245M665.441 91.1805L701 75M667.116 100.245L669.972 102M667.116 100.245L668.495 99.3982L670.447 98.1986M669.972 102L677.36 96.8339M669.972 102L670.447 98.1986M677.36 96.8339L686.422 101.415L701 75M677.36 96.8339L671.253 93.3249L701 75M701 75L671.056 93.3249L670.447 98.1986" stroke="black"/>
<path d="M13.9036 194.958C171.872 322.953 280.281 -59.541 482.523 44.8151" stroke="black" stroke-dasharray="6 6"/>
<path d="M483.125 49.6469C497.405 149.143 665.241 46.8576 703.519 152.657" stroke="black" stroke-dasharray="6 6"/>
</svg>
