<svg width="51" height="36" viewBox="0 0 51 36" fill="none" xmlns="http://www.w3.org/2000/svg">
<g filter="url(#filter0_d_114_2682)">
<path d="M21.207 5.47456C22.2781 5.14665 22.7273 4.21336 22.2435 3.45664L20.5505 0.858578C20.0667 0.127336 18.892 -0.200828 17.8554 0.127336C14.9185 1.0354 12.3962 2.22092 10.3921 3.65869C7.93894 5.34844 6.28044 7.29068 5.38209 9.43472C4.48373 11.6042 4 14.5552 4 18.3135V26.0573C4 26.8897 4.93291 27.5707 6.07313 27.5707H19.6521C20.7923 27.5707 21.7252 26.8897 21.7252 26.0573V16.1443C21.7252 15.3116 20.7923 14.6308 19.6521 14.6308H13.1563C13.2254 12.083 14.0547 10.0401 15.575 8.50118C16.8188 7.26571 18.6847 6.25675 21.207 5.47456Z" fill="#0953E9"/>
<path d="M45.601 5.4751C46.6721 5.14719 47.121 4.2139 46.6376 3.45719L44.9445 0.884596C44.4608 0.153102 43.286 -0.174809 42.2494 0.153102C39.3471 1.06116 36.859 2.24669 34.8207 3.65923C32.3672 5.37446 30.6745 7.3167 29.7758 9.46074C28.8774 11.5793 28.4286 14.5307 28.4286 18.3143V26.0581C28.4286 26.8905 29.3615 27.5715 30.5017 27.5715H44.0807C45.2209 27.5715 46.1538 26.8905 46.1538 26.0581V16.1451C46.1538 15.3124 45.2209 14.6316 44.0807 14.6316H37.5504C37.6195 12.0838 38.4491 10.0409 39.969 8.50197C41.2129 7.26625 43.0787 6.2573 45.601 5.4751Z" fill="#0953E9"/>
</g>
<defs>
<filter id="filter0_d_114_2682" x="0" y="0" width="50.8313" height="35.5713" filterUnits="userSpaceOnUse" color-interpolation-filters="sRGB">
<feFlood flood-opacity="0" result="BackgroundImageFix"/>
<feColorMatrix in="SourceAlpha" type="matrix" values="0 0 0 0 0 0 0 0 0 0 0 0 0 0 0 0 0 0 127 0" result="hardAlpha"/>
<feOffset dy="4"/>
<feGaussianBlur stdDeviation="2"/>
<feComposite in2="hardAlpha" operator="out"/>
<feColorMatrix type="matrix" values="0 0 0 0 0 0 0 0 0 0 0 0 0 0 0 0 0 0 0.25 0"/>
<feBlend mode="normal" in2="BackgroundImageFix" result="effect1_dropShadow_114_2682"/>
<feBlend mode="normal" in="SourceGraphic" in2="effect1_dropShadow_114_2682" result="shape"/>
</filter>
</defs>
</svg>
