<svg width="24" height="23" viewBox="0 0 24 23" fill="none" xmlns="http://www.w3.org/2000/svg">
<path d="M18.1016 0.123291H5.64483C2.60966 0.123291 0.14917 2.48536 0.14917 5.39912V17.3577C0.14917 20.2714 2.60966 22.6335 5.64483 22.6335H18.1016C21.1368 22.6335 23.5973 20.2714 23.5973 17.3577V5.39912C23.5973 2.48536 21.1368 0.123291 18.1016 0.123291Z" fill="#0277BD"/>
<path d="M5.07492 9.14939L5.33706 11.9581H11.8843V9.14939H5.07492ZM11.8842 3.4646H4.54797L4.81396 6.27328H11.8842V3.4646ZM11.8842 19.366V16.4438L11.8714 16.4471L8.61302 15.6025L8.40473 13.3624H5.46776L5.87765 17.7725L11.8708 19.3696L11.8842 19.366Z" fill="#EBEBEB"/>
<path d="M15.4734 11.9581L15.1338 15.6007L11.8707 16.4462V19.3682L17.8686 17.7725L17.9126 17.2979L18.6001 9.90366L18.6714 9.14939L19.1996 3.4646H11.8707V6.27328H15.9933L15.7271 9.14939H11.8707V11.9581H15.4734Z" fill="white"/>
</svg>
