<svg width="25" height="23" viewBox="0 0 25 23" fill="none" xmlns="http://www.w3.org/2000/svg">
<path d="M18.6534 0.123291H6.19658C3.16142 0.123291 0.700928 2.48536 0.700928 5.39912V17.3577C0.700928 20.2714 3.16142 22.6335 6.19658 22.6335H18.6534C21.6886 22.6335 24.1491 20.2714 24.1491 17.3577V5.39912C24.1491 2.48536 21.6886 0.123291 18.6534 0.123291Z" fill="#E14E1D"/>
<path d="M5.09973 3.4646L5.88836 11.9581H16.0288L15.6885 15.601L12.4235 16.4485L9.16468 15.6023L8.94678 13.2631H6.01018L6.43014 17.7723L12.4229 19.3702L18.4232 17.7723L19.2277 9.14975H8.56419L8.29646 6.27354H19.4928L19.7548 3.4646H5.09973Z" fill="white"/>
<path d="M12.4273 3.4646H5.09973L5.88836 11.9581H12.4273V9.14975H8.56419L8.29646 6.27354H12.4273V3.4646ZM12.4273 16.4473L12.4235 16.4485L9.16468 15.6023L8.94678 13.2631H6.01018L6.43014 17.7723L12.4229 19.3702L12.4274 19.3689L12.4273 16.4473Z" fill="#EBEBEB"/>
</svg>
