<svg width="26" height="28" viewBox="0 0 26 28" fill="none" xmlns="http://www.w3.org/2000/svg">
<path d="M1.70776 24.2951V4.46175C1.70776 3.7103 2.00627 2.98963 2.53763 2.45828C3.06898 1.92693 3.78965 1.62842 4.5411 1.62842H23.5244C23.7499 1.62842 23.9661 1.71797 24.1255 1.87738C24.2849 2.03678 24.3744 2.25298 24.3744 2.47842V21.0566M4.5411 21.4618H24.3744M4.5411 27.1284H24.3744" stroke="#0054FF" stroke-width="1.5" stroke-linecap="round"/>
<path d="M4.5411 27.1283C3.78965 27.1283 3.06898 26.8298 2.53763 26.2985C2.00627 25.7671 1.70776 25.0464 1.70776 24.295C1.70776 23.5436 2.00627 22.8229 2.53763 22.2915C3.06898 21.7602 3.78965 21.4617 4.5411 21.4617" stroke="#0054FF" stroke-width="1.5" stroke-linecap="round" stroke-linejoin="round"/>
<path d="M10.2078 11.5452H15.8744" stroke="#0054FF" stroke-width="1.5" stroke-linecap="round"/>
<path d="M13.041 15.8093L13.0552 15.7937M13.041 7.30928L13.0552 7.2937" stroke="#0054FF" stroke-width="1.5" stroke-linecap="round" stroke-linejoin="round"/>
</svg>
