<svg width="29" height="29" viewBox="0 0 29 29" fill="none" xmlns="http://www.w3.org/2000/svg">
<path d="M14.2617 0.0500488C6.97751 0.0500488 7.43232 3.22132 7.43232 3.22132L7.44041 6.50684H14.3916V7.49325H4.6795C4.6795 7.49325 0.0183105 6.96254 0.0183105 14.3411C0.0183105 21.7199 4.08671 21.4582 4.08671 21.4582H6.51471V18.0342C6.51471 18.0342 6.38382 13.9498 10.5182 13.9498H17.4125C17.4125 13.9498 21.286 14.0126 21.286 10.1916V3.87362C21.286 3.87362 21.8743 0.0500488 14.2617 0.0500488ZM10.4288 2.2595C10.5931 2.25935 10.7558 2.29172 10.9076 2.35476C11.0594 2.4178 11.1973 2.51027 11.3134 2.62688C11.4296 2.74348 11.5217 2.88194 11.5845 3.03432C11.6473 3.1867 11.6795 3.35002 11.6794 3.51492C11.6795 3.67983 11.6473 3.84315 11.5845 3.99553C11.5217 4.14791 11.4296 4.28637 11.3134 4.40297C11.1973 4.51958 11.0594 4.61205 10.9076 4.67509C10.7558 4.73812 10.5931 4.77049 10.4288 4.77035C10.2646 4.77049 10.1019 4.73812 9.95012 4.67509C9.79833 4.61205 9.66042 4.51958 9.54427 4.40297C9.42812 4.28637 9.33601 4.14791 9.27322 3.99553C9.21043 3.84315 9.17818 3.67983 9.17833 3.51492C9.17818 3.35002 9.21043 3.1867 9.27322 3.03432C9.33601 2.88194 9.42812 2.74348 9.54427 2.62688C9.66042 2.51027 9.79833 2.4178 9.95012 2.35476C10.1019 2.29172 10.2646 2.25935 10.4288 2.2595Z" fill="url(#paint0_linear_362_40)"/>
<path d="M14.4643 28.7064C21.7486 28.7064 21.2938 25.5352 21.2938 25.5352L21.2857 22.2497H14.3343V21.2633H24.0465C24.0465 21.2633 28.7077 21.7941 28.7077 14.4153C28.7077 7.03658 24.6393 7.29827 24.6393 7.29827H22.2113V10.7222C22.2113 10.7222 22.3422 14.8065 18.2078 14.8065H11.3134C11.3134 14.8065 7.43998 14.7437 7.43998 18.5649V24.883C7.43998 24.883 6.8518 28.7064 14.4642 28.7064M18.2971 26.4972C18.1329 26.4973 17.9702 26.465 17.8184 26.4019C17.6666 26.3389 17.5287 26.2464 17.4125 26.1298C17.2964 26.0132 17.2043 25.8748 17.1415 25.7224C17.0787 25.57 17.0465 25.4067 17.0466 25.2418C17.0464 25.0769 17.0787 24.9135 17.1415 24.7611C17.2043 24.6087 17.2964 24.4703 17.4125 24.3537C17.5287 24.237 17.6666 24.1446 17.8184 24.0815C17.9702 24.0185 18.1329 23.9861 18.2971 23.9862C18.4614 23.9861 18.6241 24.0185 18.7759 24.0815C18.9276 24.1445 19.0656 24.237 19.1817 24.3536C19.2979 24.4702 19.39 24.6087 19.4528 24.7611C19.5156 24.9134 19.5478 25.0768 19.5476 25.2417C19.5478 25.4066 19.5156 25.5699 19.4528 25.7223C19.39 25.8747 19.2979 26.0131 19.1817 26.1297C19.0656 26.2463 18.9276 26.3388 18.7759 26.4018C18.6241 26.4649 18.4614 26.4973 18.2971 26.4972Z" fill="url(#paint1_linear_362_40)"/>
<defs>
<linearGradient id="paint0_linear_362_40" x1="275.763" y1="257.797" x2="1703.24" y2="1665.51" gradientUnits="userSpaceOnUse">
<stop stop-color="#387EB8"/>
<stop offset="1" stop-color="#366994"/>
</linearGradient>
<linearGradient id="paint1_linear_362_40" x1="414.439" y1="447.879" x2="1947.11" y2="1891.1" gradientUnits="userSpaceOnUse">
<stop stop-color="#FFE052"/>
<stop offset="1" stop-color="#FFC331"/>
</linearGradient>
</defs>
</svg>
